# xmcd
#
# Track frame offsets: 
#        150
#        11580
#        22590
#        33985
#        42710
#        53870
#        63660
#        73700
#        82960
#        94230
#        105180
#        118462
#        129790
#        139227
#        150960
#        162827
#        175325
#        188000
#        200440
#        213650
#        224162
#
# Disc length: 3143 seconds
#
# Revision: 0
# Processed by: cddbd v1.4b42PL1 Copyright (c) Steve Scherf et al.
# Submitted via: ExactAudioCopy v0.90a11
#
DISCID=280c4515
DTITLE=Sonny James - The Classic Hits Of Sonny James
DYEAR=1900
DGENRE=
TTITLE0=That's Me Without You
TTITLE1=For Rent One Empty Heart
TTITLE2=Young Love
TTITLE3=You're The Reason I'm In Love
TTITLE4=First Date, First Kiss, First Love
TTITLE5=Uh-Huh-Mm
TTITLE6=You're The Only World I Know
TTITLE7=Behind The Tear
TTITLE8=Take Good Care Of Her
TTITLE9=I'll Never Find Another You
TTITLE10=It's The Little Things
TTITLE11=A World Of Our Own
TTITLE12=Heaven Says Hello
TTITLE13=Born To Be With You
TTITLE14=Only The Lonely
TTITLE15=Running Bear
TTITLE16=My Love
TTITLE17=Don't Keep Me Hangijn' On
TTITLE18=Endlessly
TTITLE19=Empty Arms
TTITLE20=Bright Lights, Big City
EXTD=
EXTT0=
EXTT1=
EXTT2=
EXTT3=
EXTT4=
EXTT5=
EXTT6=
EXTT7=
EXTT8=
EXTT9=
EXTT10=
EXTT11=
EXTT12=
EXTT13=
EXTT14=
EXTT15=
EXTT16=
EXTT17=
EXTT18=
EXTT19=
EXTT20=
PLAYORDER=
